<?xml version="1.0" encoding="UTF-8"?>
<svg id="_レイヤー_2" data-name="レイヤー_2" xmlns="http://www.w3.org/2000/svg" viewBox="0 0 676.26 686.94">
  <defs>
    <style>
      .cls-1 {
        fill: #fff;
      }
    </style>
  </defs>
  <g id="_レイヤー_1-2" data-name="レイヤー_1">
    <g>
      <path class="cls-1" d="M473.58,274.66c-.58-3.84-1.57-7.58-3.02-11.22-2.59-6.53-7.16-9.41-15.18-8.98-2.25.12-5.37.69-7.5,1.47-6.09,2.23-9.94,6.65-11.53,12.64-.34.73-.53,1.39-.74,2.17-.02.08-.06-.21.04.56.21,1.64-.15,1.34.81,3.94.1.27.31.49.45.75.89,1.64,3.51,6.22,4.24,7.6.78,1.46,7.78,9.39,10.3,9.91.43.09.87.17,1.3.25,11.09,2.31,22.65-6.97,20.82-19.09ZM458.33,276.78c-1.28,1.72-3.14,2.96-5.28,3.28-1.22.19-2.52.21-3.68-.26-.17-.07-.3-.19-.46-.28-.92-.22-1.85-.6-2.76-1.19-5.25-3.41-6.78-10.71-3.26-15.67,1.71-2.41,4.08-3.39,7.92-2.74.01,0,.04.01.05.02,3.06.15,5.56,2.22,7.28,4.62,2.56,3.58,2.88,8.59.18,12.21Z"/>
      <path class="cls-1" d="M430.95,343.97c-.24-.28-.43-.52-.64-.74-2.81-2.88-5.62-5.76-8.46-8.6-.44-.44-1.04-.82-1.63-1-4.95-1.55-9.91-3.06-14.87-4.56-5.38-1.63-10.76-3.25-16.15-4.85-4.14-1.22-8.28-2.42-12.44-3.57-4.66-1.3-9.32-2.58-14-3.8-4.51-1.18-9.02-2.34-13.56-3.37-6.75-1.54-13.5-3.06-20.29-4.43-7.72-1.56-15.46-3.1-23.23-4.36-8.33-1.35-16.7-2.43-25.07-3.52-6.99-.91-13.98-1.76-20.99-2.44-6.32-.61-12.65-1.03-18.98-1.39-7.37-.41-14.76-.68-22.13-.98-3.34-.14-6.68-.23-10.03-.33-.29,0-66.38-.31-66.15-.64-.42-.03-.83-.1-1.25-.09-14.44.5-28.86,1.15-43.22,2.74-18.16,2.02-36.12,5.06-53.81,9.6-4.36,1.12-8.68,2.41-13.07,3.38-3.8.84-7.68,1.34-11.52,1.99-1.85.05-4.86.83-6.55,1.63-3.42,1.18-2.09.61-5.39,2.16-.35.24-5.24,2.19-2.84,3.99.2-.02,1.93.37,2.13.34,8.43-1.48,16.95-2.02,25.5-2.2,9.64-.2,19.28.09,28.9.76,7.28.51,14.56,1.12,21.83,1.81,8.05.76,16.09,1.69,24.14,2.49,4.72.47,9.44.84,14.16,1.3,1.38.14,2.74.51,4.12.67,3.37.38,6.75.7,10.12,1.04,2.34.24,4.67.44,7,.72,2.02.25,4,.86,6.07.67,3.92.85,7.91,1.08,11.86,1.69,3.7.57,7.34,1.55,11.05,2,8.04.97,16.01,2.4,23.93,4.07,6.39,1.34,12.71,2.99,19.07,4.5,2.71.64,5.43,1.24,8.13,1.93,4.35,1.11,8.68,2.27,13.01,3.44,3.45.93,6.91,1.81,10.32,2.87,10.44,3.25,20.87,6.54,30.93,10.9,2.03.88,4.22,1.38,6.29,2.19,2.39.93,4.75,1.98,7.1,3.01,8.94,3.95,17.53,8.59,26.14,13.21,13.5,7.24,26.45,15.41,39.27,23.8,3.32,2.17,6.52,4.53,9.78,6.8.21.14.42.27.68.44.57-.89,1.08-1.75,1.64-2.56,1.47-2.11,3.24-3.94,5.37-5.39.53-.36.9-.74,1-1.42.05-.35.3-.71.55-.99,4.71-5.34,9.96-10.1,15.49-14.56,8.88-7.16,16.88-15.24,24.65-23.57,4.39-4.71,8.83-9.39,13.26-14.07.89-.94,1.85-1.8,2.81-2.72Z"/>
      <path class="cls-1" d="M640.26,261.02c-1.88-5.39-4.6-10.45-8.32-14.79-2.42-2.82-5.81-4.93-8.13-7.67-3.88-4.58-8.91-6.76-13.95-9.07-13.65-6.25-27.91-7.21-42.48-4.81-.6.1-1.19.23-1.79.3-1.58.19-3.03-.34-3.33-1.93-.27-1.44,1.17-2.01,2.33-2.33,6.69-1.81,13.57-2.04,20.44-1.73,8.94.4,17.7,1.99,26.05,5.48.34.14.73.15,1.6.32-2.57-4.4-4.4-8.66-5.05-13.33-.09-.64.24-6.69.59-8.45.23-1.14,1.01-1.92,2.04-2.49,3.89-2.16,6.13-6.49,5.33-10.79-.21-1.14.27-2.14.07-3.2l-.05.04c4.49-.25,8.01,4.96,6.28,9.46-.91,2.36-2.14,4.62-4.09,6.29-2.56,2.18-3.19,4.91-2.93,8.14.27,3.29,1.21,6.34,2.71,9.25,1.56,3.02,3.03,6.07,3.91,9.36.2.76.57,1.18,1.22,1.6,12.28,7.78,19.68,19.28,24.27,32.69,6.05,17.65,13.43,34.91,17.06,53.3,1.45,7.33,5.29,13.78,6.98,21,2.85,12.15,6.18,24.23,4.96,36.87-1.49,15.42-3.21,30.81-9.46,45.17-4.19,9.63-11.3,17.12-18.73,24.23-8.7,8.32-17.23,16.81-25.72,25.34-.02-.59.19-1.45-.12-1.73-.57-.52-1.03.24-1.44.62-4.47,4.2-9.05,8.29-12.89,13.11-.81,1.02-1.6,2.14-2.64,2.88-5.81,4.09-8.05,10.85-12.06,16.27-2.44,3.3-3.76,7.41-6.11,10.86-.41.6-.7,1.64-1.8,1.16-.95-.41-1.24-1.3-1.25-2.26-.02-1.45.79-2.62,1.8-3.36,2.62-1.92,3.34-4.66,3.68-7.63,0,0,.02-.09.02-.1,1.23,0,1.9-.77,2.71-1.59,2.07-2.09,2.88-5.01,4.99-7.1,3.69-3.66,6.19-8.19,8.58-12.76,9.14-10.6,18.66-20.79,28.88-30.39,6.99-6.56,13.82-13.4,19.82-20.96,6.62-8.33,9.26-18.35,11.28-28.55,1.02-5.15,1.57-10.4,2.43-15.58.28-1.66.56-7.42.65-8.87.72-11.26-1.71-22.16-4.08-33.07-.3-1.39-15.65-54.37-24.29-79.17Z"/>
      <path class="cls-1" d="M387.25,521.25c5.92-12.19.4-4.39,7.68-15.77,10.31-16.1,20.57-32.23,28.04-49.93,4.08-9.68,7.32-19.65,9.04-30.34-1.29.07-2.35.05-2.63.8-1.09,2.91-3.91,2.94-6.08,3.18-10.73,1.21-21.51,2-32.34,1.5-6.6-.3-12.76-2.04-17.98-6.42-.3-.25-1.57-3.96-1.75-4.31-2.21-4.26-.93-3.8-1.71-6.38-.12-.4-.29-2.82-.12-3.19.64-1.37,1.77.07,3.25.92.68.39,1.6,1.18,2.04,1.83,3.17,4.7,1.02,3.32,6.38,8.67,2.68,2.68,5.35,2.68,9.86,2.26,4.55.6,9.01.38,13.46.17,8.27-.39,16.53-1.01,24.8-1.39,2.82-.13,3.33-1.2,2.01-3.54-.5-.88-.91-1.81-1.42-2.69-.82-1.42-1.39-2.81.28-4,1.55-1.11,3.11-1.38,4.66.09,4.06,3.87,5.35,8.62,4.49,14.02-1.41,8.95-4.45,17.42-7.38,25.91-7.01,20.39-19.21,38.3-30.37,56.21-3.65,5.85-7.57,11.52-11.48,17.2"/>
      <path class="cls-1" d="M589.26,499.15c-.34,2.98-1.06,5.71-3.68,7.63-1.01.74-1.82,1.92-1.8,3.36.01.96.3,1.85,1.25,2.26,1.1.48,1.39-.56,1.8-1.16,2.35-3.45,3.68-7.56,6.11-10.86,4.01-5.42,6.25-12.18,12.06-16.27,1.04-.73,1.83-1.86,2.64-2.88,3.84-4.83,8.41-8.92,12.88-13.11.41-.38.87-1.14,1.44-.62.31.28.1,1.13.12,1.73,0,0-.13.16-.13.16-.18.16-.37.33-.56.49-3.08,3.94-6.75,7.32-10.17,10.93-1.15.28-1.51,1.15-1.66,2.19,0,0,.04-.04.04-.04-.63.1-.68.67-.87,1.12l.05-.03c-2.63,1.13-3.87,3.4-4.82,5.92l.04-.04c-.67.08-.69.66-.86,1.12l.05-.02c-2.9,1.78-4.39,4.63-5.75,7.59l.05-.04c-.88.18-1.31.89-1.75,1.55-3.92,5.83-7.81,11.67-11.12,17.89-.33.62-.83,1.16-.5,1.94-1.7,3.05-29.31,51.28-30.92,52.15-.97.53-7.42,3.03-8.03,2.68-.96-.56,22.76-42.53,24.09-45.5,1.17-2.61,9.16-14.96,12.3-20.01,1.21-1.95,5.92-8.57,7.7-10.12Z"/>
      <path class="cls-1" d="M605.57,477.61c-2.39,4.57-4.89,9.11-8.58,12.76-2.11,2.09-2.92,5.01-4.99,7.1-.81.82-1.48,1.59-2.71,1.59,4.61-7.77,10.21-14.8,16.28-21.45Z"/>
      <path class="cls-1" d="M584.12,519.96c-.33-.78.18-1.33.5-1.94,3.31-6.21,7.2-12.06,11.12-17.89.44-.66.87-1.37,1.75-1.55-4.48,7.11-9.27,14.03-13.38,21.38Z"/>
      <path class="cls-1" d="M597.45,498.62c1.36-2.96,2.85-5.81,5.75-7.59-1.92,2.53-3.83,5.06-5.75,7.59Z"/>
      <path class="cls-1" d="M603.97,489.97c.95-2.51,2.2-4.78,4.82-5.92-1.54,2.03-2.88,4.22-4.82,5.92Z"/>
      <path class="cls-1" d="M609.56,483.01c.15-1.04.52-1.91,1.66-2.19-.13,1.05-.85,1.65-1.66,2.19Z"/>
      <path class="cls-1" d="M608.74,484.09c.19-.45.23-1.01.87-1.12-.29.37-.58.75-.87,1.12Z"/>
      <path class="cls-1" d="M603.15,491.05c.18-.46.2-1.04.86-1.12-.08.53-.39.89-.86,1.12Z"/>
      <path class="cls-1" d="M621.4,469.89c.19-.17.37-.33.55-.49-.19.17-.37.33-.55.49Z"/>
      <path class="cls-1" d="M283.42,77.85c1.36-.37,2.5.34,3.7.77,26.78,9.57,53.59,19.16,81.07,26.46,26.44,7.02,53.24,12.67,79.87,18.93,18.21,4.28,36.34,8.9,54.64,12.78,22.9,4.85,45.92,9.13,68.9,13.56,10.62,2.05,21.1,4.54,31.2,8.49,13.26,5.19,15.57,17.7,12.01,26.33-2.42,5.88-6.85,10.54-11.9,14.48-11.5,8.97-24.21,15.13-38.85,17.05-5.18.68-10.27,2.06-15.42,2.98-8.68,1.56-17.29-.22-25.88-.92-17.05-1.39-34.06-3.14-51.08-4.89-8.61-.89-17.18-2.18-25.78-3.14-12.44-1.39-24.96-1.69-37.43-2.58-10.66-.76-21.35-1.21-31.97-2.55-1.48-.19-2.92-.6-4.38-.91-.23-.15-.46-.29-.69-.43,0,0,.08.07.08.07-17.28-7.77-30.88-19.76-41.26-35.57-4.93-7.5-9.71-15.08-14.18-22.85-10.95-19.06-22.07-38.04-30.28-58.52-1.22-3.05-2.69-6.08-2.36-9.53Z"/>
      <path class="cls-1" d="M301.27,294.76c-11.12-1.49-22.23-3.06-33.36-4.45-16.36-2.03-32.81-3.29-49.27-3.16-24.39.2-48.72-1.46-73.09-1.42-38.9.06-77.23,4.4-114.71,15.12-9.59,2.74-19.02,3.33-28.6-.01-2.81-.98-2.68-1.99-1.16-3.97,4.22-5.51,9.63-9.69,15.24-13.63,25.3-17.75,53.15-30.38,82.13-40.65,40.52-14.36,82.15-24.12,124.81-29.39,33.23-4.1,66.58-6.89,100.04-8.09,15.59-.56,31.25-.93,46.47,3.67,1.02.31,2.03.66,3.04,1-.78.34-1.63.58-2.34,1.03-16.79,10.64-33.38,21.58-47.33,35.92-11.1,11.41-18.27,25.12-22.58,40.35-.73,2.57-1.12,5.26.71,7.67Z"/>
      <path class="cls-1" d="M283.42,77.85c-.33,3.45,1.13,6.48,2.36,9.53,8.21,20.48,19.33,39.46,30.28,58.52,4.47,7.78,9.26,15.35,14.18,22.85,10.38,15.81,23.98,27.8,41.26,35.57-7.47-.48-14.94-.86-22.4-1.46-6.41-.52-12.82-.63-19.24-.58-4.66.03-9.11-.74-13.47-2.43-17.93-6.94-36.08-13.28-52.83-23.04-10.72-6.25-19.83-14.52-29.76-21.75-20.47-14.91-36.47-34.16-52.47-53.45-10.46-12.61-20.91-25.21-27.81-40.26-4.09-8.94-8.01-17.95-11.5-27.15-2.58-6.78-5-13.62-8.64-19.97-1.39-2.5-3.39-7.18-2.34-11.35.66-2.61,2.04-3.52,4.7-2.46,5.49,2.18,10.96,4.5,15.43,8.39,11.46,9.95,23.91,18.21,37.6,24.85,25.66,12.46,50.75,26.11,77.03,37.29,5.8,2.47,11.73,4.6,17.61,6.89Z"/>
      <path class="cls-1" d="M301.27,294.76c-1.83-2.41-1.43-5.1-.71-7.67,4.31-15.24,11.48-28.95,22.58-40.35,13.95-14.34,30.54-25.28,47.33-35.92.71-.45,1.56-.69,2.34-1.03,6.11,1.35,11.88,3.71,17.16,6.97,5.76,3.56,8.48,9.44,10.38,15.71,2.78,9.13,2.2,18.41,1.02,27.67-1.78,14.02-5.07,27.75-8.27,41.48-.92,3.94-2.65,7.67-4.53,11.28-.72,1.39-1.59,1.95-3.34,1.42-26.93-8.23-54.43-14.02-82.11-19.04-.63-.11-1.24-.34-1.86-.51Z"/>
    </g>
    <path class="cls-1" d="M177.12,470.9l-33.84,95.54,37.07,116.06h-60.96l-23.89-90.7v90.7h-59v-211.6h59v82.21l26.28-82.21h55.35Z"/>
    <path class="cls-1" d="M207.71,470.9h58.86c18.59,0,32.67,1.35,42.25,4.05,9.57,2.7,17.31,8.16,23.19,16.39,5.89,8.23,8.83,21.49,8.83,39.77,0,12.37-2.08,20.98-6.24,25.86-4.16,4.88-12.36,8.62-24.59,11.23,13.64,2.88,22.89,7.65,27.75,14.32,4.86,6.67,7.29,16.89,7.29,30.67v19.62c0,14.3-1.75,24.89-5.26,31.78-3.5,6.89-9.09,11.6-16.75,14.12-7.66,2.53-23.36,3.79-47.09,3.79h-68.25v-211.6ZM266.71,507.1v47.05c2.52-.09,4.48-.13,5.89-.13,5.79,0,9.48-1.33,11.07-3.99,1.59-2.66,2.38-10.26,2.38-22.81,0-6.62-.66-11.26-1.96-13.92-1.31-2.66-3.01-4.33-5.12-5.03-2.1-.7-6.19-1.09-12.26-1.18ZM266.71,587.09v59.21c8.31-.26,13.62-1.48,15.91-3.66,2.29-2.18,3.43-7.54,3.43-16.08v-19.74c0-9.06-1.03-14.55-3.08-16.47-2.06-1.92-7.47-3.01-16.26-3.27Z"/>
    <path class="cls-1" d="M511.62,563.04h-59v-36.78c0-10.69-.63-17.37-1.89-20.02-1.26-2.65-4.04-3.98-8.34-3.98-4.86,0-7.94,1.61-9.25,4.84-1.31,3.22-1.96,10.19-1.96,20.91v98.28c0,10.28.65,16.99,1.96,20.13,1.31,3.14,4.25,4.71,8.83,4.71s7.26-1.57,8.62-4.72c1.35-3.14,2.03-10.53,2.03-22.14v-26.6h59v8.25c0,21.9-1.66,37.44-4.97,46.6-3.32,9.16-10.65,17.19-22,24.08-11.35,6.89-25.34,10.34-41.97,10.34s-31.53-2.92-42.74-8.76c-11.21-5.84-18.64-13.92-22.28-24.24s-5.47-25.86-5.47-46.59v-61.82c0-15.25.56-26.68,1.68-34.31,1.12-7.62,4.46-14.96,10.02-22.02,5.56-7.06,13.27-12.61,23.12-16.66,9.85-4.05,21.18-6.08,33.98-6.08,17.38,0,31.72,3.13,43.02,9.4,11.3,6.26,18.73,14.08,22.28,23.43,3.55,9.35,5.33,23.91,5.33,43.66v20.1Z"/>
  </g>
</svg>