<?xml version="1.0" encoding="UTF-8"?>
<svg xmlns="http://www.w3.org/2000/svg" version="1.1" viewBox="0 0 1517 450">
  <defs>
    <style>
      .cls-1, .cls-2 {
        fill: none;
      }

      .cls-2 {
        stroke: #fff;
        stroke-miterlimit: 10;
        stroke-width: 4px;
      }

      .cls-3 {
        fill: #fff;
      }
    </style>
  </defs>
  <!-- Generator: Adobe Illustrator 28.7.0, SVG Export Plug-In . SVG Version: 1.2.0 Build 65)  -->
  <g>
    <g id="_レイヤー_1" data-name="レイヤー_1">
      <g id="_レイヤー_1-2" data-name="_レイヤー_1">
        <g id="_レイヤー_1-2">
          <g>
            <g>
              <rect class="cls-1" x="393.1" y="118.7" width="370.7" height="48"/>
              <path class="cls-3" d="M393.7,123h9.7v1.3c-1.6,0-2.7.4-3,.7s-.5,1-.5,2v10.1l11.7-11.1c.2-.2.4-.5.4-.7s-.4-.5-1-.7c-.5-.2-1.2-.2-2-.3v-1.3h9.7v1.3c-1.1,0-2,.4-2.8.7-.6.3-1.2.7-1.8,1.4l-7.8,7.4,11,12.9c1,1.2,2.4,2,4.2,2.3v1.3h-10.1v-1.3c2-.2,3-.5,3-1s-.2-.6-.5-1l-9.3-11.3-4.6,4.2v6.3c0,1,.2,1.8.7,2.2.4.3,1.3.5,2.9.7v1.3h-9.7v-1.3c1.6-.1,2.7-.4,3-.7.4-.3.6-1,.6-2v-19c0-1-.2-1.8-.6-2.1-.4-.4-1.4-.6-3-.7v-1.4h-.2v-.2h0Z"/>
              <path class="cls-3" d="M436.9,137.6v-.6c0-1.7-.4-3-1.1-3.8-.4-.4-.9-.7-1.6-1-.8-.3-1.7-.5-2.6-.5-1.4,0-2.6.2-3.5.7-.5.2-.7.5-.9.7.7.2,1,.9,1,1.7s-.1.8-.4,1.1c-.4.5-.9.7-1.5.7s-1-.2-1.4-.6-.6-1-.6-1.7c0-1.1.7-2.1,2-3,1.5-1,3.3-1.5,5.4-1.5s3.8.4,5.2,1.4c1.7,1.1,2.5,3.2,2.5,6.4v8.1c0,1.7.4,2.5,1.1,2.5s1.3-.6,1.9-1.8l1,1.4c-.8,2-2,3-3.4,3s-2.9-1.2-3-3.8c-1.5,2.5-3.9,3.8-7.6,3.8s-3.6-.7-4.8-2.2-1.2-2.2-1.2-3.6c0-2.2,1.1-3.9,3.3-5.2,2.2-1.2,5.1-1.9,8.6-2.1h1.6ZM436.9,139.4h-1.4c-3.1.2-5.4.7-7,1.7-1.6.9-2.3,2.2-2.3,3.8s.3,2,.9,2.6c.7.7,1.7,1.1,3,1.1s2.6-.3,3.8-.9c1.3-.7,2.2-1.5,2.7-2.5.2-.5.4-.9.4-1.4v-4.4h-.1Z"/>
              <path class="cls-3" d="M444.9,150.2v-1.3c1.6,0,2.6-.3,3-.7s.6-1.1.6-2.2v-11.3c0-1-.2-1.6-.7-1.9s-1.3-.5-2.5-.6v-1.3c1.7,0,3.7-.2,5.8-.7v15.9c0,1.1.2,1.9.7,2.3s1.4.6,2.8.6v1.3h-9.7,0ZM449.7,121.3c.4,0,.8,0,1.2.4.7.4,1,1,1,1.9s-.2,1.1-.6,1.5c-.4.5-1,.7-1.6.7s-.7,0-1-.2c-.8-.4-1.2-1.1-1.2-2s.2-1.2.7-1.7c.5-.4,1-.6,1.5-.6h0Z"/>
              <path class="cls-3" d="M459.7,130.8c1.7,0,3.6-.2,5.7-.7v16.1c0,2.8-.4,4.7-1.1,5.8-1.1,1.6-2.5,2.4-4.4,2.4s-2.3-.4-3.1-1.2c-.9-.9-1.4-1.9-1.4-3.1s.1-1,.4-1.4c.4-.6.9-.8,1.6-.8s.6,0,.9.2c.7.3,1,.9,1,1.7s-.5,1.5-1.4,1.9c.4.8,1.1,1.2,2,1.2s2.2-.9,2.7-2.5c.2-.9.4-2.3.4-4.1v-11.7c0-1-.2-1.6-.7-1.9s-1.3-.5-2.5-.6v-1.2h-.1ZM464.1,121.3c.4,0,.8,0,1.2.4.7.4,1,1,1,1.9s-.2,1.1-.6,1.5c-.4.5-1,.7-1.6.7s-.7,0-1-.2c-.8-.4-1.2-1.1-1.2-2s.2-1.2.7-1.7.9-.6,1.5-.6h0Z"/>
              <path class="cls-3" d="M480.9,130.2c3.1,0,5.6,1.2,7.3,3.7,1.3,1.9,2,4.1,2,6.8s-.6,5-1.9,6.8c-1.7,2.3-4.2,3.6-7.4,3.6s-5-.9-6.7-2.7c-1.7-1.9-2.7-4.4-2.7-7.6s.8-5.5,2.5-7.3c1.7-2.2,4-3.1,6.8-3.1v-.2h.1ZM480.8,131.9c-1.6,0-3,.6-4.1,1.7-1.5,1.6-2.3,3.9-2.3,6.9s.6,4.5,1.9,6.2c1.2,1.7,2.8,2.5,4.5,2.5s3-.7,4.3-2.2c1.5-1.7,2.2-3.9,2.2-6.5s-.6-4.4-1.6-6c-1.1-1.9-2.8-2.7-4.8-2.7h-.1Z"/>
              <path class="cls-3" d="M505,123h12.3c2.5,0,4.4.4,5.8,1,.7.4,1.4.9,1.9,1.5,1,1.1,1.5,2.4,1.5,3.9,0,3.5-2.3,5.6-7,6.1h0c2.5.2,4.4.7,6,1.7,2,1.3,3,3.1,3,5.4s-.8,4.1-2.5,5.3c-.7.6-1.6,1-2.8,1.4-1.5.6-3.2.8-5.1.8h-13.2v-1.3c1.5-.1,2.5-.4,2.9-.7.4-.4.6-1,.6-2v-19c0-1-.3-1.7-.9-2.1-.5-.3-1.4-.6-2.7-.7v-1.4h.2,0ZM511.1,134.8h4.3c2.2,0,3.9-.4,5.4-1.1,1.9-1,2.9-2.5,2.9-4.4s-.7-3-2.1-3.7c-1.2-.6-2.9-.9-5.1-.9h-2.7c-1,0-1.7.2-2.2.6s-.6,1-.6,2.1v7.5h.1,0ZM511.1,136.6v9.1c0,1,.2,1.7.7,2.1.5.4,1.4.6,2.9.6h2c2.6,0,4.6-.3,6-1,1.9-.9,2.9-2.5,2.9-4.7s-1.2-4.1-3.5-5.1c-1.6-.7-3.8-1-6.7-1h-4.3Z"/>
              <path class="cls-3" d="M531.8,150.2v-1.3c1.6,0,2.6-.3,3-.7s.6-1.1.6-2.2v-11.3c0-1-.2-1.6-.7-1.9s-1.3-.5-2.5-.6v-1.3c1.7,0,3.7-.2,5.8-.7v15.9c0,1.1.2,1.9.7,2.3s1.4.6,2.8.6v1.3h-9.7,0ZM536.5,121.3c.4,0,.8,0,1.2.4.7.4,1,1,1,1.9s-.2,1.1-.6,1.5c-.4.5-1,.7-1.6.7s-.7,0-1-.2c-.8-.4-1.2-1.1-1.2-2s.2-1.2.7-1.7c.5-.4.9-.6,1.5-.6h0Z"/>
              <path class="cls-3" d="M553.4,130.2c3.1,0,5.6,1.2,7.3,3.7,1.3,1.9,2,4.1,2,6.8s-.6,5-1.9,6.8c-1.7,2.3-4.2,3.6-7.4,3.6s-5-.9-6.7-2.7c-1.7-1.9-2.7-4.4-2.7-7.6s.8-5.5,2.5-7.3c1.7-2.2,4-3.1,6.8-3.1v-.2h.1ZM553.4,131.9c-1.6,0-3,.6-4.1,1.7-1.5,1.6-2.3,3.9-2.3,6.9s.6,4.5,1.9,6.2c1.2,1.7,2.8,2.5,4.5,2.5s3-.7,4.3-2.2c1.5-1.7,2.2-3.9,2.2-6.5s-.6-4.4-1.6-6c-1.1-1.9-2.8-2.7-4.8-2.7h-.1Z"/>
              <path class="cls-3" d="M566.1,150.2v-1.3c1.4,0,2.3-.3,2.8-.7s.6-1.1.6-2.2v-19.2c0-1-.2-1.7-.7-2-.4-.3-1.2-.4-2.5-.5v-1.3c2.1,0,4.1-.2,5.7-.7v23.8c0,1.1.2,1.9.6,2.3.4.3,1.3.6,2.7.6v1.3h-9.2,0Z"/>
              <path class="cls-3" d="M587.5,130.2c3.1,0,5.6,1.2,7.3,3.7,1.3,1.9,2,4.1,2,6.8s-.6,5-1.9,6.8c-1.7,2.3-4.2,3.6-7.4,3.6s-5-.9-6.7-2.7c-1.7-1.9-2.7-4.4-2.7-7.6s.8-5.5,2.5-7.3c1.7-2.2,4-3.1,6.8-3.1v-.2h.1ZM587.4,131.9c-1.6,0-3,.6-4.1,1.7-1.5,1.6-2.3,3.9-2.3,6.9s.6,4.5,1.9,6.2c1.2,1.7,2.8,2.5,4.5,2.5s3-.7,4.3-2.2c1.5-1.7,2.2-3.9,2.2-6.5s-.6-4.4-1.6-6c-1.2-1.9-2.8-2.7-4.8-2.7h-.1Z"/>
              <path class="cls-3" d="M604.9,145.8c-.8,0-1.5-.4-2-.8-.7-.5-1-1.1-1-1.8,0-1.4,1-2.3,2.9-2.7-2-.7-3.1-2.2-3.1-4.4s.6-2.8,1.9-3.9c1.5-1.4,3.5-2,5.9-2s4,.5,5.4,1.5c.6-.7,1.4-1.2,2.3-1.7.9-.4,1.7-.6,2.4-.6s.9,0,1.4.4c.7.4,1.1,1,1.1,1.9s0,.9-.4,1.3c-.4.5-.9.7-1.5.7s-.9-.2-1.4-.6-.6-.8-.6-1.3v-.6c-.7,0-1.6.6-2.5,1.5.9.9,1.4,1.9,1.4,3.3s-.7,3.3-2.3,4.3c-1.4.9-3.1,1.4-5.4,1.4s-2,0-2.9-.3c-1.5,0-2.3.6-2.3,1.5s.4.8,1.1,1.1c.7.3,1.8.5,3,.6l3.5.2c2.5,0,4.3.4,5.4.9,1.5.7,2.3,1.9,2.3,3.6s-1,3.4-2.9,4.3c-1.6.7-3.9,1-7,1s-5.1-.4-6.7-1.2c-1.7-.9-2.6-2-2.6-3.7s.5-1.9,1.5-2.5c.7-.6,1.8-.9,3.1-1.1v-.3h0,0ZM609.5,147.1c-2.2,0-3.8,0-4.9.4-1.2.4-1.8,1-1.8,2s.6,1.7,1.6,2.3c1.2.7,3,1,5.2,1,4.8,0,7.2-1.2,7.2-3.6s-2.5-2.2-7.4-2.2h.1ZM609.3,131.8c-1.2,0-2.2.2-3,.7-1.4.8-2,2-2,3.6,0,2.7,1.7,4,5.1,4s2.8-.3,3.8-1,1.5-1.7,1.5-3.1-.7-2.8-2.3-3.6c-.9-.4-1.9-.7-3-.7h0Z"/>
              <path class="cls-3" d="M622.7,130.8h9.1v1.3c-1.2,0-1.9.2-2.2.4-.5.2-.7.4-.7.7s0,.8.4,1.3l5.2,10.4,4.2-9.3c.3-.6.4-1.2.4-1.6,0-1-.9-1.7-2.7-2v-1.3h8.4v1.3c-1.1,0-2,.4-2.7,1.3-.5.6-1,1.5-1.6,2.7l-5.9,12.5c-.7,1.5-1.5,2.8-2.2,3.7-1.2,1.5-2.6,2.2-4.2,2.2s-1.5-.2-2.1-.6c-1.1-.6-1.7-1.5-1.7-2.7s.2-1.2.6-1.6.9-.6,1.4-.6,1,.2,1.4.6c.4.4.6.9.6,1.5s-.3,1.2-1,1.7c1.1,0,2-.3,2.7-1s1.2-1.5,1.9-2.7l.7-1.5-6.4-12.8c-.7-1.5-2-2.3-3.9-2.7v-1.2h.3Z"/>
              <path class="cls-3" d="M682.5,131.3h-1.4c-1.2-4.7-4.2-7.1-9-7.1s-5.9,1.4-7.7,4.2c-1.4,2.2-2.2,5-2.2,8.3s.7,5.2,2,7.3c1.1,1.7,2.6,3,4.4,3.8,1.2.6,2.5.8,3.9.8,5,0,8.3-2.7,10-7.9l1.4.6c-1,3.3-2.3,5.7-4.1,7.2-2,1.6-4.5,2.5-7.6,2.5s-7-1.4-9.4-4.1c-2.3-2.6-3.5-6-3.5-10.1s.8-6.3,2.4-8.8c1.4-2.2,3.3-3.8,5.7-4.7,1.5-.6,3-.9,4.7-.9s4.8.6,7.1,1.9c.6.3,1,.4,1.3.4s.7-.6.9-1.7h1.3v8.4h-.2Z"/>
              <path class="cls-3" d="M687.6,150.2v-1.3c1.4,0,2.3-.3,2.8-.7s.6-1.1.6-2.2v-19.2c0-1-.2-1.7-.7-2-.4-.3-1.2-.4-2.5-.5v-1.3c2.1,0,4.1-.2,5.7-.7v23.8c0,1.1.2,1.9.6,2.3.4.3,1.3.6,2.7.6v1.3h-9.2,0Z"/>
              <path class="cls-3" d="M715.3,150.2l-.4-2.8c-1.9,2.3-4.1,3.6-6.6,3.6s-4.5-1-5.7-3.1c-.7-1.2-1-2.8-1-4.7v-8.3c0-1-.2-1.7-.6-2-.4-.2-1.2-.4-2.6-.5v-1.3c1.9,0,3.8-.2,5.7-.7v12.8c0,2,.5,3.5,1.4,4.6.8.9,1.9,1.4,3.3,1.4,2.3,0,4.3-1.4,5.9-4v-10.1c0-1.1-.2-1.8-.7-2.1-.4-.2-1.2-.4-2.5-.4v-1.3c2.1,0,4-.2,5.7-.7v15.4c0,1.4.2,2.2.6,2.7.3.4,1,.6,2.2.7v1.3h-4.7v-.5h0Z"/>
              <path class="cls-3" d="M724.7,150.6v-23.8c0-1-.2-1.7-.6-2s-1.2-.5-2.5-.6v-1.3c2.4,0,4.3-.2,5.7-.7v11.2c.5-.9,1.2-1.6,2.1-2.2,1.2-.8,2.6-1.2,4.1-1.2,2.7,0,4.8,1.1,6.5,3.3,1.5,1.9,2.2,4.2,2.2,6.8s-.6,4.8-1.6,6.6c-1.6,2.7-4.1,4.1-7.4,4.1s-3.3-.4-4.4-1.2c-.6-.4-1.1-1-1.5-1.6l-.9,2.5h-1.7,0ZM732.8,132.1c-1.2,0-2.3.4-3.3,1.2-.8.7-1.4,1.4-1.7,2.3-.4,1.2-.7,2.7-.7,4.7s.2,4.4.8,5.6,1.4,2.1,2.7,2.6c.7.3,1.5.4,2.3.4,1.7,0,3.2-.8,4.4-2.3,1.2-1.6,1.9-3.8,1.9-6.4s-.8-4.7-2.3-6.3c-1.2-1.1-2.5-1.7-4-1.7h-.1Z"/>
            </g>
            <g id="_レイヤー_1-2-2" data-name="_レイヤー_1-2">
              <g>
                <path class="cls-3" d="M261.7,194.3c-.2-1.7-.7-3.5-1.4-5.1-1.2-3-3.3-4.3-6.9-4.1-1,0-2.5.3-3.4.7-2.8,1-4.6,3-5.2,5.8-.2.3-.2.6-.3,1,0,0,0-.1,0,.2.1.7,0,.6.4,1.8,0,.1.1.2.2.4.4.7,1.6,2.8,1.9,3.5.4.7,3.6,4.3,4.7,4.5.2,0,.4,0,.6.1,5,1,10.3-3.2,9.4-8.8h0ZM254.7,195.3c-.6.8-1.4,1.4-2.4,1.5-.6,0-1.2.1-1.7-.1,0,0-.1,0-.2-.1-.4-.1-.9-.2-1.2-.6-2.4-1.5-3.1-4.9-1.5-7.2.8-1.1,1.9-1.5,3.6-1.2h0c1.4,0,2.5,1,3.3,2.1,1.1,1.7,1.2,3.9,0,5.6h0Z"/>
                <path class="cls-3" d="M242.3,225.9l-.3-.3c-1.3-1.3-2.6-2.7-3.9-3.9-.2-.2-.5-.4-.7-.4-2.3-.7-4.5-1.4-6.8-2.1-2.5-.7-4.9-1.5-7.3-2.2-1.9-.6-3.8-1.1-5.7-1.6-2.1-.6-4.3-1.2-6.4-1.7-2-.6-4.1-1-6.2-1.5-3.1-.7-6.2-1.4-9.3-2-3.5-.7-7-1.4-10.6-2-3.8-.6-7.6-1.1-11.4-1.6-3.2-.4-6.4-.8-9.6-1.1-2.9-.3-5.8-.5-8.6-.6-3.4-.2-6.7-.3-10.1-.4-1.5,0-3-.1-4.6-.1s-30.3-.1-30.2-.3h-.6c-6.6.2-13.2.6-19.7,1.2-8.3.9-16.5,2.3-24.5,4.4-2,.5-3.9,1.1-6,1.5-1.7.4-3.5.6-5.2.9-.9,0-2.2.4-3,.7-1.5.6-.9.3-2.5,1-.2.1-2.4,1-1.3,1.9,0,0,.9.2,1,.2,3.8-.7,7.7-.9,11.7-1,4.4,0,8.8,0,13.2.4,3.3.2,6.7.5,9.9.8,3.7.4,7.3.8,11,1.1,2.2.2,4.3.4,6.5.6.6,0,1.2.2,1.9.3,1.5.2,3.1.3,4.6.5,1,.1,2.2.2,3.2.3.9.1,1.9.4,2.8.3,1.8.4,3.6.5,5.4.8,1.7.2,3.3.7,5.1.9,3.6.4,7.3,1.1,10.9,1.9,2.9.6,5.8,1.4,8.7,2,1.2.3,2.5.6,3.7.9,2,.5,3.9,1,5.9,1.5,1.6.4,3.1.8,4.7,1.3,4.7,1.5,9.5,3,14.1,5,.9.4,1.9.6,2.9,1,1.1.4,2.2.9,3.3,1.4,4.1,1.8,8,3.9,11.9,6,6.2,3.3,12.1,7,17.9,10.9,1.5,1,3,2.1,4.4,3.1.1,0,.2.1.3.2.2-.4.5-.8.7-1.2.7-1,1.5-1.8,2.5-2.5.2-.2.4-.3.4-.7s.1-.3.2-.4c2.2-2.5,4.6-4.6,7.1-6.7,4.1-3.3,7.7-7,11.2-10.7,2-2.2,4-4.3,6-6.4.2-.5.7-.9,1.1-1.3h0l.3-.3h0Z"/>
                <path class="cls-3" d="M337.7,188.1c-.9-2.5-2.1-4.7-3.8-6.7-1.1-1.3-2.7-2.2-3.7-3.5-1.8-2.1-4.1-3.1-6.4-4.1-6.2-2.8-12.7-3.3-19.4-2.2-.2,0-.6.1-.8.1-.7,0-1.4-.2-1.5-.9s.6-.9,1-1c3-.8,6.2-.9,9.3-.8,4.1.2,8.1.9,11.9,2.5.2,0,.3,0,.7.1-1.2-2-2-3.9-2.3-6.1,0-.3.1-3,.2-3.9.1-.5.4-.9.9-1.1,1.8-1,2.8-3,2.4-4.9-.1-.5.1-1,0-1.5h0c2-.1,3.6,2.3,2.8,4.3-.4,1-1,2.1-1.9,2.9-1.2,1-1.5,2.2-1.4,3.7s.6,2.9,1.2,4.2c.7,1.4,1.4,2.8,1.8,4.3,0,.4.2.6.6.7,5.6,3.6,9,8.8,11.1,14.9,2.8,8.1,6.1,15.9,7.8,24.3.7,3.3,2.4,6.3,3.2,9.6,1.3,5.6,2.8,11,2.3,16.8-.7,7-1.5,14.1-4.3,20.6-1.9,4.4-5.2,7.8-8.6,11-3.9,3.8-7.8,7.6-11.7,11.5v-.8c-.2-.2-.5.1-.7.3-2,1.9-4.1,3.8-5.9,6-.4.5-.7,1-1.2,1.3-2.7,1.9-3.7,4.9-5.5,7.4-1.1,1.5-1.7,3.4-2.8,4.9-.2.2-.3.7-.8.6-.4-.2-.6-.6-.6-1,0-.7.4-1.2.8-1.5,1.2-.9,1.5-2.1,1.7-3.5h0c.6,0,.9-.4,1.2-.8.9-.9,1.3-2.3,2.3-3.3,1.7-1.7,2.8-3.8,3.9-5.8,4.2-4.8,8.5-9.5,13.2-13.9,3.2-3,6.3-6.1,9.1-9.6,3-3.8,4.3-8.4,5.1-13,.5-2.3.7-4.7,1.1-7.1.1-.7.2-3.4.3-4.1.3-5.1-.8-10.1-1.9-15.1-.2-.4-7.2-24.5-11.1-35.9h.4,0Z"/>
                <path class="cls-3" d="M229.4,293.7c4.7-7.3,5.7-8.8,9.1-16.8,1.9-4.4,3.3-8.9,4.1-13.8-.6,0-1,0-1.2.4-.5,1.4-1.8,1.4-2.8,1.5-4.9.6-9.8.9-14.7.7-3-.1-5.8-.9-8.2-2.9-.1-.1-.7-1.8-.8-2-1-2-.4-1.7-.8-2.9,0-.2-.1-1.3,0-1.5.3-.6.8,0,1.5.4.3.2.7.6.9.9,1.4,2.2.5,1.5,2.9,3.9s2.5,1.2,4.5,1c2.1.2,4.1.2,6.2,0,3.8-.2,7.5-.4,11.3-.6,1.3,0,1.5-.6.9-1.6-.2-.4-.4-.8-.7-1.2-.4-.7-.6-1.3.1-1.9.7-.5,1.4-.6,2.1,0,1.9,1.8,2.5,3.9,2,6.4-.6,4.1-2,8-3.4,11.8-3.2,9.3-5.1,11.5-10.2,19.7"/>
                <path class="cls-3" d="M314.5,296.7c-.2,1.4-.5,2.6-1.7,3.5-.4.3-.8.9-.8,1.5s.1.9.6,1c.5.2.6-.2.8-.6,1-1.6,1.7-3.5,2.8-4.9,1.9-2.5,2.8-5.6,5.5-7.4.5-.3.9-.9,1.2-1.3,1.7-2.2,3.8-4.1,5.9-6,.2-.2.4-.5.7-.3.1.1,0,.5,0,.8h0c0,.1-.2.2-.2.3-1.4,1.8-3.1,3.3-4.6,5-.6.1-.7.6-.7,1h0c-.3,0-.3.3-.4.5h0c-1.2.5-1.8,1.5-2.2,2.7h0c-.3,0-.3.3-.4.5h0c-1.3.8-2,2.1-2.7,3.5h0c-.4,0-.6.4-.8.7-1.8,2.7-3.6,5.3-5.1,8.1-.1.3-.4.6-.2.9-.8,1.4-13.4,23.4-14.1,23.8-.4.2-3.4,1.4-3.6,1.2-.4-.2,10.4-19.4,11-20.8.6-1.2,4.2-6.8,5.6-9.1.6-.9,2.8-3.9,3.6-4.6h-.2,0Z"/>
                <path class="cls-3" d="M321.9,286.9c-1.1,2.1-2.2,4.1-3.9,5.8-1,.9-1.4,2.3-2.3,3.3-.4.4-.7.7-1.2.7,2.1-3.5,4.7-6.7,7.4-9.8Z"/>
                <path class="cls-3" d="M312.2,306.2c-.1-.4,0-.6.2-.9,1.5-2.8,3.3-5.5,5.1-8.1.2-.3.4-.6.8-.7-2,3.1-4.3,6.3-6.1,9.7h0Z"/>
                <path class="cls-3" d="M318.2,296.5c.6-1.4,1.3-2.7,2.7-3.5-.9,1.1-1.7,2.3-2.7,3.5Z"/>
                <path class="cls-3" d="M321.2,292.6c.4-1.2,1-2.2,2.2-2.7-.7.9-1.4,1.9-2.2,2.7Z"/>
                <path class="cls-3" d="M323.7,289.3c0-.5.2-.9.7-1,0,.5-.4.7-.7,1Z"/>
                <path class="cls-3" d="M323.4,289.8c0-.2.1-.4.4-.5-.1.2-.2.4-.4.5Z"/>
                <path class="cls-3" d="M320.8,293c0-.2,0-.5.4-.5,0,.2-.2.4-.4.5Z"/>
                <path class="cls-3" d="M329.2,283.4s.2-.1.2-.2l-.2.2Z"/>
                <path class="cls-3" d="M174.9,104.5c.6-.2,1.1.2,1.7.4,12.2,4.4,24.4,8.8,37,12.1,12.1,3.2,24.3,5.8,36.5,8.6,8.3,2,16.6,4.1,24.9,5.9,10.4,2.2,21,4.2,31.5,6.2,4.9.9,9.6,2.1,14.2,3.9,6,2.3,7.1,8.1,5.5,12-1.1,2.7-3.1,4.8-5.4,6.6-5.2,4.1-11,6.9-17.7,7.8-2.3.3-4.7.9-7,1.4-3.9.7-7.9-.1-11.8-.4-7.8-.6-15.5-1.4-23.3-2.2-3.9-.4-7.8-1-11.8-1.4-5.7-.6-11.4-.7-17.1-1.2-4.9-.4-9.7-.6-14.6-1.2-.7,0-1.4-.2-2-.4-.1,0-.2-.1-.3-.2h0c-7.9-3.5-14.1-8.9-18.8-16.2-2.2-3.4-4.4-6.9-6.5-10.4-5-8.7-10.1-17.3-13.8-26.7-.6-1.5-1.3-2.8-1.2-4.4h0v-.2h0Z"/>
                <path class="cls-3" d="M183.1,203.5c-5.1-.7-10.1-1.4-15.2-2-7.5-.9-15-1.5-22.4-1.4-11.1,0-22.2-.7-33.4-.7-17.8,0-35.2,2-52.4,6.9-4.4,1.2-8.7,1.5-13.1,0-1.3-.4-1.2-.9-.6-1.8,1.9-2.5,4.4-4.4,7-6.2,11.5-8.1,24.2-13.9,37.5-18.6,18.5-6.5,37.5-11,56.9-13.4,15.2-1.9,30.4-3.1,45.6-3.7,7.1-.2,14.2-.4,21.2,1.7.5.1.9.3,1.4.4-.4.2-.7.2-1,.5-7.6,4.9-15.2,9.9-21.6,16.4-5.1,5.2-8.3,11.5-10.3,18.4-.2,1.1-.4,2.3.4,3.5h0Z"/>
                <path class="cls-3" d="M174.9,104.5c-.1,1.6.5,3,1,4.4,3.8,9.4,8.8,18,13.8,26.7,2,3.6,4.3,7,6.5,10.4,4.7,7.2,10.9,12.7,18.8,16.2-3.4-.2-6.8-.4-10.2-.7-2.9-.2-5.9-.3-8.8-.2-2.1,0-4.1-.3-6.2-1.1-8.2-3.1-16.5-6-24.1-10.5-4.9-2.8-9.1-6.6-13.6-9.9-9.3-6.8-16.7-15.6-23.9-24.4-4.7-5.7-9.6-11.5-12.7-18.4-1.9-4.1-3.6-8.2-5.2-12.4-1.2-3.1-2.3-6.2-3.9-9.1-.6-1.1-1.5-3.3-1-5.2.3-1.2.9-1.6,2.2-1.1,2.5,1,5,2,7,3.8,5.2,4.6,10.9,8.3,17.1,11.3,11.7,5.7,23.1,11.9,35.2,17,2.7,1,5.4,2,8.1,3.1h-.1Z"/>
                <path class="cls-3" d="M183.1,203.5c-.9-1.1-.7-2.3-.3-3.5,2-7,5.2-13.2,10.3-18.4,6.4-6.5,13.9-11.5,21.6-16.4.3-.2.7-.3,1-.5,2.8.6,5.4,1.7,7.8,3.2,2.7,1.6,3.9,4.3,4.7,7.2,1.3,4.2,1,8.4.5,12.6-.8,6.4-2.3,12.6-3.8,18.9-.4,1.8-1.2,3.5-2.1,5.1-.3.6-.7.9-1.5.7-12.3-3.8-24.9-6.4-37.4-8.7-.3,0-.6-.1-.9-.2h.1Z"/>
              </g>
              <path class="cls-2" d="M88.6,339.7l16.9,53h-27.8l-10.9-41.4v41.4h-27v-96.5h26.9v37.5l12-37.5h25.3l-15.4,43.5Z"/>
              <path class="cls-2" d="M124.9,296.2h26.8c8.5,0,14.9.6,19.3,1.9,4.4,1.2,7.9,3.7,10.6,7.5,2.7,3.8,4,9.8,4,18.1s-.9,9.6-2.8,11.8-5.6,3.9-11.2,5.1c6.2,1.3,10.4,3.5,12.6,6.5s3.3,7.7,3.3,14v8.9c0,6.5-.8,11.3-2.4,14.5s-4.1,5.3-7.6,6.4c-3.5,1.2-10.7,1.7-21.5,1.7h-31.1v-96.5h0ZM151.8,312.7v21.5h2.7c2.7,0,4.3-.6,5.1-1.9s1.1-4.7,1.1-10.4-.3-5.1-.9-6.4-1.4-2-2.3-2.3c-1-.2-2.8-.4-5.6-.5h-.1ZM151.8,349.2v27c3.8-.1,6.2-.7,7.3-1.7,1-1,1.5-3.5,1.5-7.3v-9c0-4.1-.5-6.7-1.4-7.5-.9-.9-3.4-1.4-7.4-1.5h0Z"/>
              <path class="cls-2" d="M268.5,336.8h-26.9v-16.8c0-4.9-.3-8-.9-9.1s-1.9-1.8-3.8-1.8-3.6.7-4.2,2.2c-.6,1.5-.9,4.6-.9,9.6v44.8c0,4.7.3,7.8.9,9.2s1.9,2.2,4,2.2,3.3-.7,3.9-2.2.9-4.8.9-10.1v-12.2h26.9v3.8c0,10-.7,17.1-2.3,21.3s-4.9,7.8-10.1,11c-5.2,3.1-11.5,4.7-19.1,4.7s-14.4-1.4-19.5-4-8.5-6.4-10.2-11c-1.7-4.7-2.5-11.8-2.5-21.3v-28.2c0-7,.2-12.2.7-15.7s2-6.8,4.6-10.1c2.5-3.2,6-5.7,10.5-7.6s9.7-2.8,15.5-2.8,14.5,1.4,19.6,4.3c5.2,2.8,8.6,6.4,10.2,10.7,1.6,4.3,2.4,10.9,2.4,19.9l.3,9.2Z"/>
            </g>
            <g>
              <rect class="cls-1" x="393.1" y="166.7" width="370.7" height="145.6"/>
              <path class="cls-3" d="M395.8,185.5h42.2v5.7c-7.2.7-11.5,1.8-13.3,3.4-1.5,1.4-2.2,4.4-2.2,8.9v43.9l51.2-48.6c1.2-1,1.8-2.1,1.8-3.1s-1.5-2.2-4.5-3.2c-2.2-.7-5.2-1.2-8.9-1.4v-5.7h42.3v5.7c-4.9.5-8.9,1.6-12.2,3.3-2.5,1.4-5.1,3.3-7.9,5.9l-34.4,32.3,48,56.4c4.6,5.4,10.6,8.6,18.3,9.9v5.7h-43.9v-5.7c8.9-.7,13.3-2.2,13.3-4.3s-.7-2.7-2.2-4.4l-40.9-49.6-20,18.4v27.6c0,4.7,1,7.8,2.9,9.4,1.6,1.3,5.7,2.2,12.5,2.9v5.7h-42.2v-5.7c7.2-.6,11.5-1.7,13.3-3.4,1.5-1.4,2.3-4.4,2.3-8.9v-83.1c0-4.7-.9-7.8-2.5-9.2-1.9-1.6-6.2-2.7-13-3.1v-5.7h0Z"/>
              <path class="cls-3" d="M521.6,185.5h53.7c10.9,0,19.4,1.5,25.4,4.7,3.1,1.6,5.9,3.8,8.3,6.4,4.6,4.9,6.8,10.5,6.8,17,0,15.5-10.2,24.4-30.6,26.8v.6c10.8.4,19.5,2.7,26.1,7,8.6,5.6,13,13.6,13,23.8s-3.6,17.7-10.8,23.3c-3.1,2.4-7.1,4.4-12,6.1-6.7,2.3-14,3.5-22,3.5h-57.8v-5.7c6.7-.7,10.9-1.8,12.7-3.4,1.9-1.7,2.8-4.7,2.8-9v-83c0-4.6-1.4-7.6-4-9.3-2.2-1.4-6-2.3-11.5-3.1v-5.6h-.1ZM548.2,237.5h19c9.5,0,17.4-1.6,23.7-4.7,8.4-4.2,12.6-10.7,12.6-19.5s-3.1-13.1-9.2-16.1c-5.3-2.5-12.8-3.8-22.3-3.8h-11.7c-4.5,0-7.6.8-9.3,2.3-1.9,1.7-2.8,4.7-2.8,9.1v32.7h0ZM548.2,245.2v40c0,4.6,1,7.6,3,9.1s6.3,2.3,12.7,2.3h8.9c11.2,0,20-1.5,26.3-4.4,8.4-3.9,12.6-10.8,12.6-20.6s-5.1-18.1-15.2-22.2c-7-2.8-16.7-4.3-29.3-4.3h-19Z"/>
              <path class="cls-3" d="M733.3,221.8h-5.8c-5.2-20.6-18.3-30.9-39.5-30.9s-25.8,6.1-33.8,18.3c-6.3,9.7-9.4,21.8-9.4,36.3s2.9,22.9,8.7,31.8c4.9,7.5,11.3,13,19.2,16.5,5.3,2.4,11,3.6,17,3.6,21.7,0,36.3-11.5,43.6-34.7l6.3,2.7c-4.3,14.4-10.4,24.9-18.1,31.5-8.6,7.2-19.7,10.7-33.5,10.7s-30.6-6-41.2-18c-10.1-11.4-15.2-26-15.2-43.9s3.5-27.6,10.5-38.5c6.2-9.7,14.5-16.7,24.7-20.8,6.5-2.7,13.3-4,20.6-4,10.6,0,20.9,2.8,30.9,8.4,2.4,1.4,4.3,2,5.6,2s3-2.5,3.8-7.4h5.7v36.5h0Z"/>
            </g>
            <g>
              <rect class="cls-1" x="393.1" y="343.1" width="428.2" height="58.8"/>
              <path class="cls-3" d="M395.4,355.2c3.6,2.2,5.4,3.9,5.4,5.5s-.4,1.3-1,1.9c-.4.3-.7.4-1,.4s-.6-.4-.9-1.3c-.5-1.9-1.7-3.6-3.4-5.2l.9-1.2h0ZM407.4,353.2l-5.9,20.1c-.4,1.5-.7,2.8-.7,3.8s0,1,.2,1.7c.4,2.2.6,3.9.6,5.3s-.1,1.5-.4,1.8-.8.4-1.6.4-1.6-.4-1.6-1.1.1-.9.3-2.5c.1-1,.2-2.1.2-3.1,0-2-.5-3.4-1.5-4.1-.5-.3-1.2-.6-2.2-.7v-1.6c.8.1,1.4.1,1.8.1,1.2,0,2.2-.7,2.7-2,.9-2.1,2.1-5.2,3.5-9.3,1.1-3.5,2-6.8,2.8-9.9l1.9,1.2h0ZM397.3,345.4c3.9,2,5.9,3.8,5.9,5.3s-.3,1.2-.9,1.7c-.4.4-.8.6-1.1.6s-.7-.3-.9-.9c-.6-2-2-3.8-4-5.4l1-1.3h0ZM412,379.4v.4c-.1.6-.2,1.4-.4,2.3l-2.7-.6c.6-3.8,1.1-8,1.6-12.3h-4.3l-.6-2.1h5v-.7c.3-2.8.6-6.1.7-9.9.7.2,1.7.5,3.1,1h13.6l1.6-1.7c1.9,1.5,2.7,2.5,2.7,3s-.1.4-.4.6l-.9.6v7h1.4l1.9-2.6c1,1,1.8,2.1,2.5,3.3l-.7,1.4h-5.1v1c0,3-.2,5.4-.4,7.2h1.7l1.9-2.6c.9,1,1.7,2.1,2.3,3.2l-.7,1.5h-5.5c-.3,3-.9,4.8-1.7,5.6s-2.1,1.2-3.6,1.2c0-.6-.2-.9-.6-1.1-.5-.2-2-.6-4.7-1v-1.7c1.9.2,3.5.4,4.9.4s2.2-.5,2.5-1.4c.1-.4.2-1,.4-2h-15.5,0ZM413.9,350.6h16.4l2.3-2.7c1.3,1.1,2.4,2.3,3.3,3.4l-.7,1.4h-22.1c-1.4,3-3.1,5.7-5.3,8.1l-1.4-1.2c3.1-4,5.2-9.1,6.2-15.2,2.8.6,4.3,1.2,4.3,1.8s-.6.7-1.8,1c-.5,1.4-.8,2.5-1.1,3.3h0ZM413.2,369.1l-.2,1.9c-.2,2-.4,4.1-.7,6.4h6.3v-.6c.3-2.3.6-4.9.7-7.6h-6.1,0ZM413.4,367h6v-.7c.1-2.5.2-4.5.2-6.2v-.7h-5.7c0,1.9-.2,4.4-.4,7.6h-.1ZM427.8,377.3v-.2c.2-2.3.4-5,.4-8h-6.4c-.2,3.5-.4,6.3-.7,8.2h6.7ZM428.3,367v-7.6h-6.2c0,1.9,0,4.4-.2,7.6h6.4Z"/>
              <path class="cls-3" d="M444.9,374.1v-15.2h-5.1l-.6-2.2h5.6v-11.3c3,0,4.4.5,4.4,1.2s-.6.9-1.8,1.3v8.9h1.7l1.7-2.4c.9.9,1.7,1.9,2.5,3.1l-.7,1.5h-5.2v14.2c1.9-.8,3.6-1.7,5.1-2.5v2c-3.5,2.3-7,4.1-10.6,5.6-.2,1.1-.6,1.7-.9,1.7-.6,0-1.3-1.3-2.1-3.9,2-.5,3.9-1.1,5.9-1.9h.1ZM470.3,373.6c-1.7-5.3-2.7-11.1-3.1-17.4h-9.9v6.5h5l1.4-1.6c1.8,1.5,2.7,2.4,2.7,2.8s-.1.4-.4.6l-.9.6c0,6.2-.2,10-.7,11.3-.6,1.4-1.8,2.2-3.7,2.3,0-.7-.3-1.2-.9-1.5-.4-.2-1.2-.4-2.3-.6v-1.6c1,.2,1.9.2,2.8.2s1.5-.3,1.7-.9c.4-.9.6-4.1.6-9.6h-5.2c0,3.5-.3,6.8-.9,9.7-.9,4.4-2.8,8.2-5.6,11.5l-1.4-1.2c2.5-3.7,4.1-8,4.7-12.8.3-2.3.4-4.9.4-7.9v-11.6c1,.4,2.1.9,3.2,1.4h9.4c-.1-2.2-.2-5.4-.2-9.4,2.9.2,4.3.6,4.3,1.2s-.5.7-1.5,1.2v6.8h7.2l1.6-1.9c.9.7,1.7,1.6,2.5,2.6l-.7,1.4h-10.4c.3,5.2,1,10.1,2.2,14.7,1.7-3,3.2-6.5,4.4-10.7,2.5,1,3.7,1.9,3.7,2.5s-.6.7-1.7.7c-1.6,4-3.4,7.5-5.4,10.5.9,2.2,1.9,4.3,3.2,6.4.6.9,1,1.4,1.2,1.4s.5-.5.7-1.4c.5-2,.9-4.2,1.2-6.5l1.6,1c-.5,3.6-.7,5.9-.7,7.1s.3,2.3,1,2.7c-.5,1.2-1.2,1.8-2.1,1.8s-2.2-.8-3.5-2.3c-.7-.9-1.5-2.1-2.5-3.8-.7-1.4-1.4-2.5-1.8-3.6-3,3.8-6.4,6.8-10.4,9.3l-1-1.4c3.9-2.4,7.3-6,10.3-10.5h-.1ZM473.2,345.7c3.1,1.7,4.6,3.3,4.6,4.7s-.3,1.1-1,1.5c-.5.2-.9.4-1.2.4s-.7-.4-.9-1.1c-.2-1.6-1.1-3-2.5-4.3l1-1.1h0Z"/>
              <path class="cls-3" d="M491.1,371.1v3.1h-2.8v-20.1c1.2.4,2.3.8,3.3,1.2h11.7v-9.7c3.3.2,5,.6,5,1.4s-.7.9-2,1.4v7.1h12.2l1.7-1.9c2.1,1.6,3.1,2.7,3.1,3.2s-.2.5-.5.7l-1,.6v15.8h-2.8v-2.7h-12.5v15.2h-3v-15.2h-12.4ZM491.1,368.8h12.2v-11.2h-12.2v11.2ZM518.7,368.8v-11.2h-12.5v11.2h12.5Z"/>
              <path class="cls-3" d="M548.3,350.1v-5.4c3.1.1,4.6.5,4.6,1.2s-.6.8-1.9,1.2v3h12.7l2.3-2.6c1.1.9,2.3,2.1,3.4,3.5l-.6,1.2h-38l-.6-2.1h18.1ZM535.7,366.2h28l1.5-1.7c2,1.5,3.1,2.5,3.1,3s0,.5-.4.7l-1,.7v13.6c0,1.2-.2,2-.8,2.5-.4.4-1,.6-2,.8-.7.1-1.4.2-1.9.2,0-.7-.4-1.2-1.2-1.5-.7-.2-2.2-.5-4.4-.8v-1.7c1.7.2,3.6.3,5.8.3s1.4-.1,1.5-.4.2-.6.2-1v-12.6h-28.6v18h-2.8v-21.3c1,.2,2,.6,3,1.1h0ZM558.2,363.2h-16.6v1.3h-2.7v-10.8c1,.4,2,.7,3,1.2h16l1.5-1.5c1.9,1.4,2.9,2.4,2.9,2.9s0,.4-.4.6l-1,.6v6.9h-2.7v-1.2h0ZM543.9,380v2.1h-2.7v-11.8c.7.2,1.7.6,3,1.2h11.2l1.4-1.5c1.9,1.4,2.8,2.3,2.8,2.8s0,.5-.4.7l-.9.6v6h-14.4,0ZM558.2,361.1v-4.1h-16.6v4.1h16.6ZM555.7,377.9v-4.3h-11.8v4.3h11.8Z"/>
              <path class="cls-3" d="M593.2,381.6v-10.9h-12.3l-.6-2.1h13v-9.8h-10.2c-1.5,3.7-3.6,7.1-6.2,10.1l-1.5-1.2c3.6-5,6.2-11.5,7.6-19.7,3.1.6,4.6,1.3,4.6,2s-.7.8-2,1.1c-.6,2.1-1.1,3.9-1.7,5.4h9.3v-10.7c3.3.1,5.1.6,5.1,1.4s-.7.9-2,1.4v8h10l2.3-2.7c1.2,1,2.4,2.2,3.5,3.5l-.8,1.5h-14.9v9.8h7.8l2.3-2.6c.9.7,2,1.9,3.4,3.3l-.8,1.4h-12.7v10.9h12.7l2.5-2.8c1.3,1,2.5,2.3,3.6,3.6l-.7,1.5h-39.5l-.6-2.3h18.9,0Z"/>
              <path class="cls-3" d="M629.1,357.3v9.7c2.2-.8,4.4-1.7,6.6-2.7v1.9c-2.6,1.3-4.9,2.3-6.8,3.1v17h-2.7v-15.9c-2.2.9-3.9,1.4-4.9,1.8-.2,1.2-.6,1.8-1,1.8-.7,0-1.4-1.3-2.1-3.9,2.2-.5,4.9-1.2,8.1-2.2v-10.5h-3.7c-.6,3.4-1.5,6.6-2.8,9.6l-1.5-.7c1.5-5.4,2.2-11.5,2.3-18.5,2.8.3,4.3.7,4.3,1.4s-.5.7-1.4,1.1c0,1.9-.3,3.6-.6,5.1h3.4v-10.4c3,0,4.4.4,4.4,1.1s-.6.8-1.8,1.4v7.8h2.3l1.8-2.5c.9.9,1.8,2,2.7,3.3l-.7,1.3h-6,.1ZM652.2,356c-.8,5.4-2,10.1-3.8,14.1-2.7,6-6.8,11-12.3,15l-1.4-1.4c5.6-4.3,9.6-9.9,12.2-16.8,1.1-3,2-6.7,2.5-10.9h-3.4c-1.5,8.4-5.4,15.2-11.7,20.4l-1.4-1.3c5.4-4.9,8.8-11.3,10.2-19.1h-3.3c-1.2,3-3,5.8-5.1,8.5l-1.4-1c2.2-3.2,3.8-6.6,4.9-10.3.7-2.5,1.4-5.2,1.8-8.3,3,.6,4.4,1.2,4.4,1.9s-.6.7-1.9,1c-.6,2.2-1.2,4.3-1.9,6.3h14.2l1.6-2c2,1.6,3,2.7,3,3.3s0,.4-.4.6l-1.2.7c0,9.9-.5,17.5-1.5,22.7-.3,1.9-.7,3.2-1.3,4.1-.6,1-1.5,1.8-2.7,2.3-.7.3-1.5.5-2.3.5,0-.7-.4-1.2-1.4-1.5-.8-.2-2.4-.6-4.9-.9v-1.9c1.7.2,3.5.4,5.4.4s2.9-.5,3.5-1.5c.5-.8.9-2.6,1.4-5.4.7-4.3,1-10.8,1-19.4h-3,.2Z"/>
              <path class="cls-3" d="M676.8,363.9c1.4-3.1,2.4-6.4,3.1-9.9,2.8.9,4.3,1.7,4.3,2.3s-.6.8-1.9,1c-1,2.6-2.2,4.7-3.3,6.5h4l2-2.6c1,1,2,2.1,3,3.3l-.7,1.4h-23.1l-.6-2.1h13.3,0ZM674,351.5v-6.7c3.1,0,4.6.5,4.6,1.2s-.6.9-1.9,1.4v4.1h4.9l2-2.4c1.4,1.2,2.3,2.3,3.1,3.2l-.8,1.3h-21l-.6-2.1h9.8,0ZM668.4,354.4c3.1,2.8,4.6,5.2,4.6,7s-.3,1.4-1,1.7c-.5.2-.9.3-1.2.3-.5,0-.7-.4-.8-1.1-.2-2.4-1.2-4.7-2.8-6.7l1.2-1.2h0ZM669.9,383.6v2.7h-2.7v-17c1.1.4,2.2.8,3.3,1.2h10.1l1.5-1.6c2,1.5,3,2.5,3,3.1s0,.4-.4.6l-1,.7v13h-2.7v-2.7h-11.1,0ZM669.9,381.4h11.1v-8.7h-11.1v8.7ZM692.5,348.1h6.7l1.4-1.7c2.1,1.8,3.1,3,3.1,3.5s-.2.4-.5.6l-1.1.6c-1.2,3.9-2.6,7.4-4.1,10.6,0,0,.3.2.7.6,2,1.6,3.5,3.6,4.3,5.9.6,1.5.8,3,.8,4.7s-.2,3.5-.7,4.7-1.4,2.1-2.7,2.7c-.7.3-1.5.4-2.2.4,0-.8-.4-1.4-1.2-1.7-.6-.2-1.6-.4-3.1-.6v-1.7c1.2.2,2.5.4,3.7.4s2.7-.6,3-1.9c.2-.9.4-1.9.4-3.2,0-3.6-1.7-7-5.2-10v-.4c1.7-4,2.8-7.8,3.5-11.3h-7.3v36.1h-2.8v-39.4c.8.2,1.9.6,3.1,1.2h.2,0Z"/>
            </g>
          </g>
          <g>
            <rect class="cls-1" x="885.1" y="221.7" width="891.2" height="135.3"/>
            <path class="cls-3" d="M925.9,259.8c0,10.4-8.5,18.9-18.9,18.9s-18.9-8.5-18.9-18.9,8.5-18.9,18.9-18.9,18.9,8.4,18.9,18.9h0ZM890,259.8c0,9.5,7.6,17.1,17.1,17.1s17.1-7.6,17.1-17.1-7.6-17.1-17.1-17.1-17.1,7.6-17.1,17.1h0ZM914.1,254.5c-1.2-3.5-3.1-5-6.8-5s-8.3,3.8-8.3,10.2,3.1,10.2,8.3,10.2,6.5-2,7-5.8l3.6.7c-.6,1.9-1.1,3-1.9,4.2-1.9,2.5-4.9,3.8-8.7,3.8-7.2,0-11.7-5.1-11.7-13.2s4.6-13.3,11.7-13.3,8.6,2.2,10.2,7.2l-3.5.9h.1Z"/>
            <path class="cls-3" d="M966,276.7c-2.7,0-3.3,0-4.7.2.6-3.6.7-4.4,1.4-6.1,1.1-2.6,2.8-4.8,5.6-7.2,1.5-1.3,1.5-1.4,6.6-4.7,4.5-3.1,6-5,6-7.8s-3-5.8-7.7-5.8-5.3,1-6.7,3c-.9,1.2-1.2,2.3-1.6,4.6l-3.1-.6c.7-3.1,1.4-4.6,2.8-6.2,2-2.2,4.8-3.3,8.6-3.3,6.5,0,10.7,3.3,10.7,8.4s-.8,4.2-2.3,5.9c-1.2,1.3-2.3,2.2-7.3,5.6-4.1,2.8-5.6,4.1-7.2,6.1-1.4,1.8-2,3.1-2.5,5.4h14.6c2.1,0,3.5,0,5.2-.2v3.1c-1.7-.2-3.1-.2-5.2-.2h-13.3v-.2h.1Z"/>
            <path class="cls-3" d="M993.5,274.3c-1.2-1.2-2-2.6-2.6-3.9-1.1-3.1-1.7-6.6-1.7-10.2s1-9.6,2.5-12c2.1-3.5,5.4-5.3,9.6-5.3s5.9,1,7.8,3c1.2,1.2,2.1,2.6,2.6,3.9,1.1,3.1,1.7,6.6,1.7,10.3,0,5.4-1.1,10.1-3.1,12.8-2.2,3-5.2,4.5-9.1,4.5s-5.9-1-7.8-3h0ZM995.6,247.5c-1,1-1.7,2.1-2,3.2-1,2.8-1.5,5.9-1.5,9.3s.9,8.6,2.2,10.7c1.6,2.7,4,4,7,4s4.3-.7,5.7-2.2c1-1,1.7-2.2,2.1-3.3,1-2.8,1.5-5.9,1.5-9.3s-.9-8.6-2.1-10.7c-1.5-2.7-4-4.1-7.2-4.1s-4.2.8-5.7,2.3h0Z"/>
            <path class="cls-3" d="M1023,276.7c-2.7,0-3.3,0-4.7.2.6-3.6.7-4.4,1.4-6.1,1.1-2.6,2.8-4.8,5.6-7.2,1.5-1.3,1.5-1.4,6.6-4.7,4.5-3.1,6-5,6-7.8s-3-5.8-7.7-5.8-5.3,1-6.7,3c-.9,1.2-1.2,2.3-1.6,4.6l-3.1-.6c.7-3.1,1.4-4.6,2.8-6.2,2-2.2,4.8-3.3,8.6-3.3,6.5,0,10.7,3.3,10.7,8.4s-.8,4.2-2.3,5.9c-1.2,1.3-2.3,2.2-7.3,5.6-4.1,2.8-5.6,4.1-7.2,6.1-1.4,1.8-2,3.1-2.5,5.4h14.6c2.1,0,3.5,0,5.2-.2v3.1c-1.7-.2-3.1-.2-5.2-.2h-13.3v-.2h0Z"/>
            <path class="cls-3" d="M1045.5,265.3c1.2-1.4,1.9-2.2,2.7-3.3l11.4-14.4c1.4-1.9,2.3-3,3.2-4.4h2.8c-.2,2.5-.2,3.9-.2,7.5v14.6h1.7c2,0,3.1,0,4.7-.3v3.1c-1.7-.2-2.8-.3-4.7-.3h-1.7v4.1c0,2,0,3.1.4,4.7h-3.4c.2-1.5.4-2.8.4-4.7v-4h-11.8c-2.3,0-3.9,0-5.2.2v-2.8h-.3ZM1062.5,253.7c0-2.5,0-3.8.2-6.2-.9,1.4-1.9,2.6-3.3,4.4l-10.7,13.6h13.7v-11.8h.1Z"/>
            <path class="cls-3" d="M1113.2,272c2.5,3.1,2.9,3.6,4.1,4.7h-4.4c-.6-1-1.2-1.9-2.5-3.6l-11-13.8-5.2,5.2v7.4c0,2.2,0,3.3.4,4.8h-3.5c.2-1.5.4-2.8.4-4.8v-23.7c0-2,0-3.2-.4-4.8h3.5c-.2,1.4-.4,2.7-.4,4.8v12.8l14.1-14.1c1.7-1.7,2.4-2.6,3-3.6h4.4c-.5.5-.7.7-1.2,1.1-.7.7-1.4,1.4-1.9,1.9-.9.9-1.4,1.5-1.5,1.5l-9.7,9.5,11.8,14.7h0Z"/>
            <path class="cls-3" d="M1137.3,273.3c-1.9,1.7-2.7,2.3-4.3,3-1.5.6-3,.9-4.5.9-4.7,0-7.5-2.5-7.5-6.6s2.3-6.2,6.7-7.3c2.5-.6,4.6-.9,9.7-1v-2.9c0-3-2-4.7-5.7-4.7s-4.4.7-5.7,2c-.6.7-.9,1.3-1.4,2.6l-2.8-.6c.7-2,1.2-2.8,2.2-3.8,1.7-1.7,4.3-2.6,7.5-2.6,5.5,0,8.5,2.5,8.5,6.9v12.6c0,1.9,0,3,.4,4.7h-3v-3.2h0ZM1137.3,264.5c-5.6.1-8.3.5-10.2,1.4-2.2,1-3.3,2.5-3.3,4.7s2,4.2,5,4.2,5.6-1.4,7.3-3.4c1-1.1,1.3-2,1.3-3.8v-3h-.1Z"/>
            <path class="cls-3" d="M1150.2,243.3v3.6h-3.7v-3.6h3.7ZM1150.1,253.1c-.2,1.5-.3,2.7-.3,4.8v13.9c0,1.9,0,3.1.3,4.8h-3.4c.2-1.9.3-3.1.3-4.8v-13.9c0-2,0-3.3-.3-4.8h3.4Z"/>
            <path class="cls-3" d="M1160.9,253.1c-.2,1.5-.3,2.7-.3,4.8v22.6c0,4.2-2,6.1-6.1,6.1s-4.1-.7-6-2.9l2.5-1.9c1.2,1.7,2.2,2.3,3.8,2.3,2.3,0,3.2-1.1,3.2-3.9v-22.4c0-2.1,0-3.3-.3-4.8h3.3,0ZM1161.1,243.3v3.6h-3.7v-3.6h3.7Z"/>
            <path class="cls-3" d="M1166.6,265c0-7.5,4.5-12.3,11.5-12.3s11.5,4.8,11.5,12.3-4.5,12.3-11.3,12.3-11.6-4.8-11.6-12.3h0ZM1169.4,264.9c0,6.1,3.3,9.9,8.7,9.9s8.6-3.8,8.6-9.9-3.3-9.9-8.6-9.9-8.8,3.8-8.8,9.9h.1Z"/>
            <path class="cls-3" d="M1214.6,276.7c-1.9,0-3.1,0-4.7.1.3-1.7.4-2.9.4-5.4v-23.6c0-1.9,0-3.1-.4-4.5h13.9c6.3,0,9.9,2.9,9.9,8.1s-.8,4.5-2.4,5.9c-.9.7-1.7,1.2-3.5,1.7,2,.4,3.1.9,4.3,1.9,1.8,1.5,2.7,3.7,2.7,6.6,0,5.9-3.8,9.3-10.5,9.3h-9.7ZM1223.9,257.8c4.4,0,6.9-2.3,6.9-6.2s-2.3-5.8-6.9-5.8h-10.7v12h10.7ZM1213.2,274.2h11c5.1,0,7.8-2.4,7.8-6.9s-2.7-6.9-7.9-6.9h-10.9v13.8h0Z"/>
            <path class="cls-3" d="M1244.4,243.3v3.6h-3.7v-3.6h3.7ZM1244.2,253.1c-.2,1.5-.3,2.7-.3,4.8v13.9c0,1.9,0,3.1.3,4.8h-3.4c.2-1.9.3-3.1.3-4.8v-13.9c0-2,0-3.3-.3-4.8h3.4Z"/>
            <path class="cls-3" d="M1249.7,265c0-7.5,4.5-12.3,11.5-12.3s11.5,4.8,11.5,12.3-4.5,12.3-11.3,12.3-11.6-4.8-11.6-12.3h0ZM1252.6,264.9c0,6.1,3.3,9.9,8.7,9.9s8.6-3.8,8.6-9.9-3.3-9.9-8.6-9.9-8.8,3.8-8.8,9.9h.1Z"/>
            <path class="cls-3" d="M1281.4,243.3c-.2,1.5-.3,2.7-.3,4.8v23.7c0,2,0,3.1.3,4.8h-3.4c.2-1.5.3-3,.3-4.8v-23.7c0-2,0-3.3-.3-4.8h3.4Z"/>
            <path class="cls-3" d="M1286.8,265c0-7.5,4.5-12.3,11.5-12.3s11.5,4.8,11.5,12.3-4.5,12.3-11.3,12.3-11.6-4.8-11.6-12.3h0ZM1289.6,264.9c0,6.1,3.3,9.9,8.7,9.9s8.6-3.8,8.6-9.9-3.3-9.9-8.6-9.9-8.8,3.8-8.8,9.9h.1Z"/>
            <path class="cls-3" d="M1336.4,253.1c-.2,1.7-.3,2.8-.3,4.8v16.2c0,3.9-.7,6.8-2.3,8.8-1.8,2.3-4.9,3.6-8.9,3.6s-6.8-1.2-9.7-4.4l2.3-1.7c.6.8.9,1.1,1.4,1.5,1.8,1.5,3.6,2.2,6.1,2.2,4.1,0,6.8-1.8,7.9-5.3.3-1,.5-3.3.8-7-.7,1.2-1.2,1.9-2,2.6-1.7,1.6-4.2,2.5-7,2.5-6.6,0-10.7-4.6-10.7-12s4.3-12.3,10.7-12.3,7.2,1.7,8.9,5.1v-4.7h2.9-.1ZM1324.8,274.6c5.2,0,8.7-3.9,8.7-10.1s-3.3-9.5-8.4-9.5-8.2,3.8-8.2,9.9,3,9.6,8,9.6h0Z"/>
            <path class="cls-3" d="M1342.7,258.3c-1.3-2.8-2.1-4.5-2.4-5.2h3.7c.2,1.2.7,3,1.5,4.6l6.7,15.5,6-15.5c.8-2.2,1.2-3.4,1.4-4.6h3.4c-.4.9-1,2.6-2.2,5.2l-9.9,24.4c-1.1,2.7-2.9,3.9-5.7,3.9s-1.9-.1-3.5-.4l.9-2.8c1.2.6,1.8.7,2.6.7,1.5,0,2.5-.7,3.3-2.5l2.2-5.2-8-18.1h0Z"/>
            <path class="cls-3" d="M1405.8,252.5c-.7-2-1.2-2.9-2.2-3.9-1.9-2.2-4.7-3.3-8-3.3-7.4,0-12.2,5.7-12.2,14.7s4.7,14.7,12.2,14.7,6.7-1.4,8.6-3.9c1-1.4,1.5-2.5,1.9-4.5l3,.8c-.7,2.4-1.3,3.6-2.2,4.9-2.5,3.4-6.5,5.2-11.4,5.2s-7.6-1.4-10.1-3.8c-3.1-3.1-4.8-7.8-4.8-13.4s1.7-10.4,4.9-13.6c2.5-2.5,5.9-3.8,10.1-3.8s7.4,1.2,9.7,3.5c1.5,1.5,2.3,2.7,3.4,5.4l-2.9,1h0Z"/>
            <path class="cls-3" d="M1418,243.3c-.2,1.5-.3,2.7-.3,4.8v23.7c0,2,0,3.1.3,4.8h-3.4c.2-1.5.3-3,.3-4.8v-23.7c0-2,0-3.3-.3-4.8h3.4Z"/>
            <path class="cls-3" d="M1441.7,273.4v-2c-2,3.8-4.8,5.7-8.9,5.7s-8.1-3-8.1-8.1v-11c0-1.9,0-3.4-.3-4.8h3.4c-.2,1.4-.3,3-.3,4.8v10.5c0,4.1,2,6.4,5.8,6.4s4.8-1.4,6.5-3.8c1-1.5,1.5-2.7,1.9-4.5v-8.5c0-1.9,0-3.3-.3-4.8h3.3c-.2,1.5-.3,3-.3,4.8v13.9c0,1.9,0,3.1.4,4.8h-3.1v-3.3h0Z"/>
            <path class="cls-3" d="M1454.2,254.4c0,1.2,0,2.2-.2,3.5,1.9-3.5,4.9-5.2,9.1-5.2,6.7,0,10.7,4.5,10.7,12.2s-4.1,12.3-10.7,12.3-7.3-1.8-9.1-5.2v4.8h-3c.2-1.7.3-2.8.3-4.9v-23.7c0-1.8,0-3.1-.3-4.8h3.3c-.2,1.6-.3,2.8-.3,4.8v6.4h0v-.2h.2ZM1463.1,255c-5.4,0-8.8,3.9-8.8,9.8s3.5,9.9,8.8,9.9,8-3.7,8-9.9-2.9-9.8-8-9.8h0Z"/>
          </g>
        </g>
      </g>
    </g>
  </g>
</svg>